<?xml version="1.0" standalone="no"?>
<!DOCTYPE svg PUBLIC "-//W3C//DTD SVG 20010904//EN"
 "http://www.w3.org/TR/2001/REC-SVG-20010904/DTD/svg10.dtd">
<svg version="1.0" xmlns="http://www.w3.org/2000/svg"
 width="260.000000pt" height="260.000000pt" viewBox="0 0 260.000000 260.000000"
 preserveAspectRatio="xMidYMid meet">
<metadata>
Created by potrace 1.11, written by Peter Selinger 2001-2013
</metadata>
<g transform="translate(0.000000,260.000000) scale(0.100000,-0.100000)"
fill="#000000" stroke="none">
<path d="M340 2589 c-160 -31 -299 -173 -330 -339 -14 -72 -14 -1828 0 -1900
33 -173 174 -312 345 -340 80 -13 1810 -13 1890 0 174 28 317 171 345 347 13
78 13 1809 0 1888 -28 171 -167 312 -340 345 -66 12 -1845 12 -1910 -1z m419
-372 c265 -49 344 -61 349 -51 12 22 965 -166 1018 -201 22 -14 159 -213 152
-220 -2 -2 -22 2 -43 10 -33 12 -152 14 -655 15 -558 0 -627 2 -750 20 -198
29 -184 33 -177 -47 5 -58 26 -114 138 -378 77 -181 142 -320 156 -333 18 -18
22 -29 16 -45 -4 -12 -7 -35 -8 -52 0 -24 7 -33 36 -49 34 -18 45 -38 135
-234 l99 -214 121 -61 c82 -41 120 -65 117 -74 -11 -29 -650 -7 -790 27 -205
49 -312 150 -313 294 0 72 25 130 78 178 70 64 69 52 19 205 -76 229 -78 237
-60 263 18 25 10 118 -12 160 -8 14 -25 96 -39 183 -15 101 -30 165 -40 176
-11 12 -16 37 -16 82 0 54 -6 77 -41 149 l-40 85 34 80 34 80 59 22 c49 18 61
19 70 8 6 -8 145 -39 353 -78z m862 -577 c-3 -24 -2 -24 15 -8 38 33 101 39
379 36 232 -3 274 -5 301 -20 40 -22 58 -66 51 -121 -3 -23 -63 -252 -132
-509 -69 -257 -125 -470 -125 -473 0 -3 -126 -5 -280 -5 -162 0 -280 4 -280 9
0 5 56 220 125 477 69 257 124 473 121 481 -9 21 -168 18 -195 -4 -16 -14 -48
-120 -148 -491 -99 -369 -130 -472 -141 -470 -9 2 -86 154 -184 363 l-169 359
52 196 c28 107 54 198 56 203 2 4 129 6 281 5 l277 -3 -4 -25z"/>
<path d="M435 2188 c16 -18 61 -66 100 -105 l69 -73 371 1 370 1 -80 18 c-44
10 -106 23 -137 29 -43 9 -56 16 -51 27 3 8 2 14 -1 14 -4 0 -152 27 -330 60
-178 33 -327 60 -332 60 -4 0 5 -15 21 -32z"/>
<path d="M410 1704 c0 -6 11 -66 25 -133 13 -66 22 -128 19 -136 -4 -9 -1 -51
6 -95 l12 -79 52 -6 c28 -4 74 -5 102 -3 l51 3 -75 130 c-164 284 -192 330
-192 319z"/>
<path d="M540 1174 c0 -10 61 -197 66 -203 2 -3 49 8 104 23 l100 28 -35 62
c-20 33 -39 66 -43 73 -8 13 -192 30 -192 17z"/>
</g>
</svg>
